<svg xmlns="http://www.w3.org/2000/svg" xmlns:xlink="http://www.w3.org/1999/xlink" width="698.958" height="85.757" viewBox="0 0 698.958 85.757">
  <defs>
    <linearGradient id="linear-gradient" x1="0.072" y1="-0.112" x2="1.108" y2="1.25" gradientUnits="objectBoundingBox">
      <stop offset="0" stop-color="#60b9f2"/>
      <stop offset="1" stop-color="#2269e9"/>
    </linearGradient>
  </defs>
  <g id="Group_9563" data-name="Group 9563" transform="translate(-99.75 -2641.254)">
    <rect id="Rectangle_2715" data-name="Rectangle 2715" width="189.44" height="5.859" rx="2.929" transform="translate(194.796 2684.132)" fill="url(#linear-gradient)"/>
    <rect id="Rectangle_2716" data-name="Rectangle 2716" width="189.44" height="5.859" rx="2.929" transform="translate(502.86 2684.132)" fill="url(#linear-gradient)"/>
    <g id="Group_9446" data-name="Group 9446" transform="translate(99.75 2647.16)">
      <path id="Path_236107" data-name="Path 236107" d="M45.219,968.362a24.842,24.842,0,0,0-24.53,20.189,20.555,20.555,0,0,0,3.92,40.742H68.516a17.872,17.872,0,0,0,1.624-35.674,24.815,24.815,0,0,0-24.922-25.257Zm0,5.376a19.521,19.521,0,0,1,13.917,5.74A19.725,19.725,0,0,1,64.792,995.8a2.688,2.688,0,0,0,2.66,3.024h1.064a12.545,12.545,0,1,1,0,25.089H24.609a15.237,15.237,0,0,1-1.4-30.41,2.688,2.688,0,0,0,2.408-2.352,19.678,19.678,0,0,1,19.6-17.417Zm0,16.129a2.408,2.408,0,0,0-1.82.7l-9.857,8.961a2.712,2.712,0,0,0-.168,3.808,2.813,2.813,0,0,0,3.808.168l5.348-4.872v17.221a2.688,2.688,0,0,0,5.376,0V998.632l5.348,4.872a2.872,2.872,0,0,0,3.808-.168,2.705,2.705,0,0,0-.168-3.808l-9.857-8.961A2.266,2.266,0,0,0,45.219,989.867Z" transform="translate(-4 -968.362)" fill="url(#linear-gradient)"/>
    </g>
    <g id="Group_9524" data-name="Group 9524" transform="translate(715 2649.989)">
      <path id="Path_236117" data-name="Path 236117" d="M75.121,51.717a1.945,1.945,0,0,1,.436,2.724l-5.148,7.124a1.945,1.945,0,0,1-1.576.805H68.8a1.945,1.945,0,0,1-1.58-.856l-2.634-3.891a1.945,1.945,0,0,1,3.222-2.179l1.074,1.587,3.5-4.871a1.945,1.945,0,0,1,2.735-.444Zm8.587,4.809a13.618,13.618,0,0,1-25.174,7.159L39.7,69.989l-.117.039a1.72,1.72,0,0,1-1.245,0,.144.144,0,0,1-.117-.039L3.323,58.355A1.891,1.891,0,0,1,2,56.527V17.618a1.809,1.809,0,0,1,.233-.895.7.7,0,0,1,.195-.272,1.833,1.833,0,0,1,.389-.389,1.28,1.28,0,0,1,.506-.272l.233-.078,17.159-5.72.272-.078L38.224,4.156a.144.144,0,0,1,.117-.039,1.72,1.72,0,0,1,1.245,0l.117.039L74.37,15.711l.078.039.156.039A1.868,1.868,0,0,1,75.81,17c.039.039.039.078.039.156a1.945,1.945,0,0,1,.078.467V44.27A13.536,13.536,0,0,1,83.708,56.527ZM27.563,11.782l28.909,9.649,11.4-3.813L38.963,7.969Zm9.455,18.91L5.891,20.3V55.126L37.018,65.514Zm13.346-7.237L21.454,13.8l-11.4,3.813,28.909,9.649Zm6.109,33.072A13.618,13.618,0,0,1,70.09,42.909a10.649,10.649,0,0,1,1.945.156V20.3L57.211,25.244a.564.564,0,0,1-.272.078c0,.039-.039.039-.078.039l-15.953,5.33V65.514l16.069-5.369A12.509,12.509,0,0,1,56.472,56.527Zm23.345,0a9.758,9.758,0,0,0-6.225-9.066c-.195-.078-.389-.156-.623-.233a.121.121,0,0,1-.078-.039,10.824,10.824,0,0,0-2.8-.389,9.727,9.727,0,1,0,9.727,9.727Z" transform="translate(0 0)" fill="url(#linear-gradient)"/>
    </g>
    <g id="Group_9525" data-name="Group 9525" transform="translate(28.405 -190.746)">
      <path id="Path_236118" data-name="Path 236118" d="M70.925,48.351c-.007-.017-.021-.027-.03-.044a1.442,1.442,0,0,0-.27-.409c-.021-.021-.044-.036-.067-.056a1.312,1.312,0,0,0-.18-.152L41.792,29.141c-.013-.009-.029-.009-.041-.016s-.036-.03-.057-.043a1.429,1.429,0,0,0-.4-.139c-.04-.009-.079-.006-.119-.011a1.391,1.391,0,0,0-.377.007c-.046.007-.09.013-.136.024a1.425,1.425,0,0,0-.435.182l-.016.01,0,0L37.865,30.7a1.429,1.429,0,0,0,1.569,2.39l.152-.1V58.372L15.511,48.806l.562-.369a1.429,1.429,0,1,0-1.569-2.39l-2.859,1.877a1.458,1.458,0,0,0-.19.162c-.019.017-.039.03-.056.047a1.421,1.421,0,0,0-.269.412c-.007.017-.023.029-.03.046s0,.039-.01.057a1.439,1.439,0,0,0-.09.473V61.907a1.427,1.427,0,0,0,.843,1.3L40.429,76.074l.014,0a1.391,1.391,0,0,0,1.143,0l.014,0L70.187,63.21a1.427,1.427,0,0,0,.843-1.3V48.889a1.393,1.393,0,0,0-.094-.479C70.93,48.39,70.933,48.37,70.925,48.351Z" transform="translate(378.864 2841.557)" fill="url(#linear-gradient)"/>
      <path id="Path_236119" data-name="Path 236119" d="M86.328,7.717H39.161V3.429A1.428,1.428,0,0,0,37.732,2H23.439A1.428,1.428,0,0,0,22.01,3.429V7.717H3.429A1.428,1.428,0,0,0,2,9.146v5.717a1.428,1.428,0,0,0,1.429,1.429H22.01v4.288a1.428,1.428,0,0,0,1.429,1.429H26.3V26.3a1.423,1.423,0,0,0,.419,1.011l2.44,2.44v4.7a9.937,9.937,0,0,0,6.8,9.44,2.59,2.59,0,0,1,1.771,2.457,2.589,2.589,0,0,1-3.45,2.441l-13.587-4.8a5.448,5.448,0,0,0-7.261,5.138v.206a5.428,5.428,0,0,0,3.373,5.037l21.809,8.98a1.43,1.43,0,1,0,1.089-2.644L17.9,51.728a2.579,2.579,0,0,1-1.6-2.394v-.206a2.589,2.589,0,0,1,3.45-2.441l13.587,4.8a5.447,5.447,0,1,0,3.536-10.3,7.084,7.084,0,0,1-4.851-6.73v-4.7l2.44-2.44a1.423,1.423,0,0,0,.419-1.01V22.01h2.859a1.428,1.428,0,0,0,1.429-1.429V16.293H86.328a1.428,1.428,0,0,0,1.429-1.429V9.146A1.428,1.428,0,0,0,86.328,7.717ZM36.3,19.151H24.868V16.293H36.3Z" transform="translate(375 2830)" fill="url(#linear-gradient)"/>
    </g>
  </g>
</svg>
